<?xml version="1.0" encoding="UTF-8"?>
<svg version="1.1" xmlns="http://www.w3.org/2000/svg" width="666" height="245">
<path d="M0 0 C8.53729743 8.00620584 14.80438437 17.03182314 19 27.9375 C19.44214844 29.06414063 19.88429687 30.19078125 20.33984375 31.3515625 C26.71281071 48.30919633 28.20875182 63.65772083 22 80.9375 C21.64655978 82.26564491 21.30389771 83.59715114 21 84.9375 C22.0725 85.700625 23.145 86.46375 24.25 87.25 C27.99208049 90.07483873 31.5643124 93.06789698 35.0625 96.1875 C36.50302734 97.46367187 36.50302734 97.46367187 37.97265625 98.765625 C47.08475491 107.96024719 50.67918514 118.40666976 54.50952148 130.51416016 C55.43774599 133.43827491 56.39942467 136.34983067 57.36523438 139.26171875 C57.97337783 141.14257605 58.57956512 143.02406721 59.18359375 144.90625 C59.61000404 146.19263367 59.61000404 146.19263367 60.04502869 147.50500488 C62.95104017 156.84067396 63.02686884 165.92019014 59 174.9375 C54.16747957 183.24675041 47.47615798 187.57340253 38.796875 191.3203125 C32.87964221 193.69970309 32.87964221 193.69970309 28.64453125 198.17578125 C27.8408357 200.51284882 27.8408357 200.51284882 27.4296875 202.7890625 C26.96636897 205.10565513 26.12991111 206.87377806 25 208.9375 C25.515625 209.47375 26.03125 210.01 26.5625 210.5625 C28 212.9375 28 212.9375 28 216 C27 218.9375 27 218.9375 25.07241821 220.59881592 C20.64469344 222.52802095 16.62149422 222.33987027 11.84130859 222.29394531 C10.31125435 222.29701187 10.31125435 222.29701187 8.75028992 222.30014038 C5.3828227 222.30314551 2.01584642 222.28468035 -1.3515625 222.265625 C-3.69135415 222.26256709 -6.03114763 222.26069121 -8.37094116 222.25994873 C-13.27177916 222.2553475 -18.17245267 222.24092686 -23.07324219 222.21875 C-29.36277427 222.19043667 -35.65217698 222.17953509 -41.94176674 222.1750679 C-46.77150777 222.17091634 -51.60122252 222.16110156 -56.43095016 222.14919281 C-58.75065271 222.14348677 -61.07035779 222.13872917 -63.39006424 222.13492584 C-66.62678747 222.12806994 -69.86340733 222.11444133 -73.10009766 222.09863281 C-74.5448774 222.09695602 -74.5448774 222.09695602 -76.0188446 222.09524536 C-77.33942116 222.08668015 -77.33942116 222.08668015 -78.68667603 222.07794189 C-79.45172266 222.07496723 -80.21676929 222.07199257 -81.00499916 222.06892776 C-83 221.9375 -83 221.9375 -86 220.9375 C-88.32579101 217.44881349 -88.41865457 216.04031481 -88 211.9375 C-86.5 209.5625 -86.5 209.5625 -85 207.9375 C-85.45375 207.36 -85.9075 206.7825 -86.375 206.1875 C-88.29476253 203.52936726 -89.78233923 201.18676947 -90.34960938 197.9309082 C-90.89322621 195.51190321 -90.89322621 195.51190321 -94.28125 194.04296875 C-95.68271476 193.39322312 -97.0893108 192.7544671 -98.5 192.125 C-107.03151184 188.08624661 -115.66648112 183.77121155 -120 174.9375 C-124.20773313 162.96570699 -122.84120006 153.05513983 -118.625 141.3125 C-118.16867188 139.99765625 -118.16867188 139.99765625 -117.703125 138.65625 C-117.09927409 136.91695293 -116.49095531 135.17919985 -115.87792969 133.44311523 C-115.03973325 131.05089888 -114.22841662 128.6517411 -113.4296875 126.24609375 C-113.18653809 125.51551758 -112.94338867 124.78494141 -112.69287109 124.03222656 C-112.05032594 122.08964818 -111.41545952 120.14453449 -110.78125 118.19921875 C-107.27641937 108.42202354 -102.51902228 102.03940863 -95 94.9375 C-94.33355469 94.29941406 -93.66710937 93.66132812 -92.98046875 93.00390625 C-89.29897121 89.67144459 -85.38054023 87.26186829 -81 84.9375 C-81.433125 83.98875 -81.86625 83.04 -82.3125 82.0625 C-85.78530407 73.84079048 -87.53570809 66.63639223 -86.9375 57.6875 C-86.88368164 56.77363525 -86.82986328 55.85977051 -86.77441406 54.91821289 C-86.21474302 47.16403883 -84.7085689 40.25154802 -82 32.9375 C-81.62746094 31.90367188 -81.25492188 30.86984375 -80.87109375 29.8046875 C-76.68667335 19.00529229 -70.53085319 8.88001848 -62 0.9375 C-61.34 0.9375 -60.68 0.9375 -60 0.9375 C-60 0.2775 -60 -0.3825 -60 -1.0625 C-41.82502431 -16.42781761 -17.65531767 -15.02060103 0 0 Z M-58.80078125 14.34375 C-64.94365252 21.58862837 -69.11883034 29.26474644 -72 38.25 C-72.20786133 38.89525635 -72.41572266 39.5405127 -72.62988281 40.20532227 C-74.01265114 44.93664208 -74.17301774 49.0659692 -74 53.9375 C-72.97261719 53.39480469 -71.94523437 52.85210937 -70.88671875 52.29296875 C-50.26986224 41.5791879 -28.61295564 38.61695227 -6 44.9375 C1.45571732 47.31125683 7.91246126 49.98252661 14 54.9375 C12.34027396 40.02473768 7.9938842 27.99077924 -1 15.9375 C-1.4434375 15.32132813 -1.886875 14.70515625 -2.34375 14.0703125 C-8.51983906 6.01635853 -17.92911921 0.47228137 -27.9375 -1 C-40.53747035 -1.78018392 -50.47250871 5.62304577 -58.80078125 14.34375 Z M-53 51.9375 C-51.63016497 55.09865776 -51.0109362 55.9302092 -48 57.9375 C-45.01896641 57.71392248 -43.46564453 57.3389177 -41.1875 55.375 C-40.795625 54.900625 -40.40375 54.42625 -40 53.9375 C-46.32470845 50.94641492 -46.32470845 50.94641492 -53 51.9375 Z M-20 53.9375 C-20 54.5975 -20 55.2575 -20 55.9375 C-16.81496448 57.32521413 -16.81496448 57.32521413 -13 57.9375 C-9.53909546 56.35382508 -9.53909546 56.35382508 -7 53.9375 C-7 53.2775 -7 52.6175 -7 51.9375 C-12.44893869 50.73873349 -15.22169095 51.02389692 -20 53.9375 Z M-33.48046875 61.8515625 C-35.291022 62.93735958 -37.0770217 64.06487545 -38.83984375 65.2265625 C-44.73336698 68.41736989 -51.43013267 68.99776992 -58 69.9375 C-52.92461145 80.92131959 -48.32659336 90.38524835 -37 95.9375 C-36.34 96.2675 -35.68 96.5975 -35 96.9375 C-28.49184509 97.76114616 -23.25982008 96.92478297 -18 92.9375 C-11.58235878 86.93995508 -5.43238277 80.61624171 -3 71.9375 C-3 71.2775 -3 70.6175 -3 69.9375 C-4.18335938 69.70675781 -5.36671875 69.47601563 -6.5859375 69.23828125 C-8.18294112 68.91201715 -9.77925431 68.58236202 -11.375 68.25 C-12.20265869 68.07936035 -13.03031738 67.9087207 -13.88305664 67.73291016 C-18.61159523 66.68892901 -22.31326375 65.44798756 -26.4375 62.8125 C-29.37536987 61.16649481 -30.27292684 60.66957068 -33.48046875 61.8515625 Z M-80 85.9375 C-79 87.9375 -79 87.9375 -79 87.9375 Z M4 85.9375 C5 87.9375 5 87.9375 5 87.9375 Z M18 85.9375 C17.34 87.5875 16.68 89.2375 16 90.9375 C18.0399719 89.57426257 18.0399719 89.57426257 20 87.9375 C20 87.2775 20 86.6175 20 85.9375 C19.34 85.9375 18.68 85.9375 18 85.9375 Z M2 88.9375 C3 90.9375 3 90.9375 3 90.9375 Z M-64 88.9375 C-62.80044776 98.33117669 -53.6763434 107.59027212 -47 113.9375 C-46.34 113.9375 -45.68 113.9375 -45 113.9375 C-44.71125 114.535625 -44.4225 115.13375 -44.125 115.75 C-42.95257974 118.13077792 -42.95257974 118.13077792 -41 120.9375 C-54.35492983 118.74216907 -66.10405602 113.08146018 -77.10546875 105.26171875 C-79.3378908 103.70132478 -81.65378489 102.31929508 -84 100.9375 C-92.34889608 108.19212329 -97.6861242 114.51635578 -101.12646484 125.26416016 C-102.01373049 127.97952036 -102.95618362 130.67268012 -103.90997314 133.36529541 C-104.86141412 136.05761824 -105.79725667 138.75519977 -106.72967529 141.4541626 C-107.19887861 142.81030867 -107.67105512 144.16542996 -108.14630127 145.51947021 C-108.81878985 147.4472629 -109.47221042 149.38055914 -110.12109375 151.31640625 C-110.5070874 152.4463501 -110.89308105 153.57629395 -111.29077148 154.74047852 C-112.06941465 158.25040354 -111.92385174 160.4811826 -111 163.9375 C-107.46661263 169.34799941 -102.96666558 172.47833241 -97 174.9375 C-95.00945521 175.32330119 -93.00967482 175.66857948 -91 175.9375 C-91.06058594 175.23367187 -91.12117188 174.52984375 -91.18359375 173.8046875 C-94.54375315 134.20650139 -94.54375315 134.20650139 -91 128.9375 C-84.82506796 126.92755422 -79.11142056 126.65069119 -72.65600586 126.67871094 C-71.14956261 126.67345398 -71.14956261 126.67345398 -69.61268616 126.66809082 C-66.31333377 126.65933245 -63.01419809 126.66510141 -59.71484375 126.671875 C-57.41134093 126.67052676 -55.10783839 126.66858491 -52.80433655 126.66607666 C-47.98533408 126.66313347 -43.16640592 126.66739758 -38.34741211 126.67675781 C-32.1782716 126.68815821 -26.00930501 126.68158395 -19.84017086 126.66961288 C-15.08662104 126.66237806 -10.33311231 126.66468958 -5.57956123 126.66986847 C-3.3050287 126.67120014 -1.03049241 126.66957419 1.24403572 126.66490936 C4.42459084 126.65981683 7.60486605 126.66759259 10.78540039 126.67871094 C11.72014191 126.67466248 12.65488342 126.67061401 13.61795044 126.66644287 C19.32602363 126.70331184 25.15783851 126.75850953 29.875 130.375 C35.58599343 138.30693532 31.7189413 154.63142528 31 163.8125 C30.90460938 165.08480469 30.80921875 166.35710937 30.7109375 167.66796875 C30.47858963 170.75819542 30.24155931 173.84798215 30 176.9375 C31.91658607 176.17033727 33.8300527 175.39537857 35.7421875 174.6171875 C37.34102783 173.97112549 37.34102783 173.97112549 38.97216797 173.31201172 C44.42678062 170.835841 48.04832395 168.32100285 50.29296875 162.69921875 C51.09027461 158.45719916 50.53743538 155.60632402 49.1875 151.625 C48.8467041 150.56430298 48.8467041 150.56430298 48.49902344 149.48217773 C47.97821903 147.87872835 47.44779126 146.27838446 46.90966797 144.68066406 C45.88779552 141.59913997 44.93185727 138.5000187 43.97265625 135.3984375 C43.23420967 133.09817397 42.49332555 130.79869153 41.75 128.5 C41.41637451 127.41098389 41.08274902 126.32196777 40.73901367 125.19995117 C37.23750474 114.71304808 30.66106577 107.59985829 22 100.9375 C21.58492187 101.2778125 21.16984375 101.618125 20.7421875 101.96875 C8.69187392 111.44765775 -4.80768173 118.48086981 -20 120.9375 C-17.76289883 117.1157855 -15.53484687 114.40403906 -12.125 111.5625 C-6.0196786 106.4104258 -1.56289941 100.06329882 2 92.9375 C1.505 91.9475 1.505 91.9475 1 90.9375 C0.60321045 91.36571045 0.2064209 91.7939209 -0.20239258 92.23510742 C-16.81958864 109.98872694 -16.81958864 109.98872694 -30 111.9375 C-42.92060773 111.14644238 -51.64983667 101.76786442 -60 92.9375 C-61.32885158 91.59969993 -62.66045076 90.26458831 -64 88.9375 Z M-83 133.9375 C-83 134.2675 -83 134.5975 -83 134.9375 C-48.35 134.9375 -13.7 134.9375 22 134.9375 C22 134.6075 22 134.2775 22 133.9375 C-12.65 133.9375 -47.3 133.9375 -83 133.9375 Z M-35.9375 164.5 C-37.44640049 167.96159525 -36.8701627 170.32297801 -36 173.9375 C-34.12575284 176.218221 -34.12575284 176.218221 -31.125 176.3125 C-27.96251032 176.16309892 -27.96251032 176.16309892 -25.5625 174.375 C-23.66558465 171.91126884 -23.66558465 171.91126884 -24.0625 168.3125 C-24.6750845 164.68233076 -24.6750845 164.68233076 -28 162.9375 C-31.42491119 162.5093861 -33.20132655 162.29340851 -35.9375 164.5 Z " fill="#E5E5FC" transform="translate(133,16.0625)"/>
<path d="M0 0 C8.91 0 17.82 0 27 0 C27.66 7.92 28.32 15.84 29 24 C29.66 24 30.32 24 31 24 C30.97679687 23.35675781 30.95359375 22.71351562 30.9296875 22.05078125 C30.77376986 14.24376249 31.77223559 7.98046869 33 0 C41.91 0 50.82 0 60 0 C60 29.04 60 58.08 60 88 C53.07 88 46.14 88 39 88 C38.505 79.09 38.505 79.09 38 70 C37.67 70 37.34 70 37 70 C36.79503906 71.21558594 36.59007812 72.43117188 36.37890625 73.68359375 C36.10698039 75.26826514 35.83483357 76.85289863 35.5625 78.4375 C35.42779297 79.23994141 35.29308594 80.04238281 35.15429688 80.86914062 C34.11328125 86.88671875 34.11328125 86.88671875 33 88 C31.1875 88.1328125 31.1875 88.1328125 29 88.125 C28.278125 88.12757813 27.55625 88.13015625 26.8125 88.1328125 C25 88 25 88 24 87 C23.70297986 85.37095732 23.46187054 83.73162369 23.24609375 82.08984375 C23.11396484 81.10048828 22.98183594 80.11113281 22.84570312 79.09179688 C22.71099609 78.05087891 22.57628906 77.00996094 22.4375 75.9375 C22.29892578 74.89271484 22.16035156 73.84792969 22.01757812 72.77148438 C21.67460733 70.18146356 21.33559369 67.59098531 21 65 C20.97494385 65.59014893 20.9498877 66.18029785 20.92407227 66.78833008 C20.80799948 69.46326814 20.68532428 72.1378638 20.5625 74.8125 C20.52318359 75.74126953 20.48386719 76.67003906 20.44335938 77.62695312 C20.40146484 78.51962891 20.35957031 79.41230469 20.31640625 80.33203125 C20.27974854 81.15421143 20.24309082 81.9763916 20.20532227 82.82348633 C20 85 20 85 19 88 C12.73 88 6.46 88 0 88 C0 58.96 0 29.92 0 0 Z " fill="#FEFEFE" transform="translate(597,74)"/>
<path d="M0 0 C5.30186559 -0.09918586 10.60318618 -0.17161755 15.90576172 -0.21972656 C17.70794081 -0.23979033 19.51005521 -0.26704813 21.31201172 -0.30175781 C23.90869136 -0.35050829 26.50450729 -0.37302082 29.1015625 -0.390625 C30.30191635 -0.42159271 30.30191635 -0.42159271 31.52651978 -0.45318604 C36.84199711 -0.45529817 39.76261712 0.51598245 44 4 C50.47009767 10.62056505 52.36755733 17.13784668 52.36132812 26.1328125 C52.34521484 27.07898438 52.32910156 28.02515625 52.3125 29 C52.31572266 29.94617188 52.31894531 30.89234375 52.32226562 31.8671875 C52.26467463 39.42731457 51.71986177 46.09121606 47.125 52.375 C45.20910921 55.65714398 45.20910921 55.65714398 45.4609375 59.3359375 C46.17494913 60.99480663 46.93581468 62.6340418 47.734375 64.25390625 C49.16642135 67.36109324 49.97192909 70.35781422 50.75 73.6875 C50.99234375 74.72261719 51.2346875 75.75773437 51.484375 76.82421875 C52 80 52 80 52 87 C44.41 87 36.82 87 29 87 C27.28155805 81.84467415 25.9356052 76.78573591 24.68359375 71.51171875 C24.24487841 69.07934642 24.24487841 69.07934642 23 68 C22.67 74.27 22.34 80.54 22 87 C14.41 87 6.82 87 -1 87 C-1.02284645 78.75735301 -1.04108254 70.5147318 -1.05181217 62.27206135 C-1.05696907 58.44218557 -1.06393089 54.61233308 -1.07543945 50.7824707 C-1.12508843 33.82867853 -1.08219956 16.92843161 0 0 Z M23 22 C23 28.27 23 34.54 23 41 C24.32 41 25.64 41 27 41 C28.06385483 37.80843552 28.16677982 35.41502524 28.1875 32.0625 C28.20167969 31.02222656 28.21585937 29.98195313 28.23046875 28.91015625 C28.00392282 26.04953387 27.47733619 24.42329849 26 22 C25.01 22 24.02 22 23 22 Z " fill="#FEFEFE" transform="translate(272,75)"/>
<path d="M0 0 C7.59 0 15.18 0 23 0 C23.06058594 1.70929688 23.12117187 3.41859375 23.18359375 5.1796875 C23.26798879 7.41146744 23.35263731 9.6432378 23.4375 11.875 C23.47681641 13.00292969 23.51613281 14.13085938 23.55664062 15.29296875 C23.59853516 16.36933594 23.64042969 17.44570312 23.68359375 18.5546875 C23.72025146 19.54968262 23.75690918 20.54467773 23.79467773 21.56982422 C23.84959532 24.00779501 23.84959532 24.00779501 25 26 C25.99 26 26.98 26 28 26 C29.17016832 17.30732103 29.07420209 8.75584639 29 0 C36.59 0 44.18 0 52 0 C52 28.71 52 57.42 52 87 C44.74 87 37.48 87 30 87 C28.39693019 85.39693019 28.79729376 83.63208803 28.71875 81.4140625 C28.68136719 80.48335938 28.64398437 79.55265625 28.60546875 78.59375 C28.57066406 77.6140625 28.53585937 76.634375 28.5 75.625 C28.43108101 73.70037352 28.35832899 71.77587945 28.28125 69.8515625 C28.25095703 68.99385254 28.22066406 68.13614258 28.18945312 67.25244141 C28.07495932 64.83220799 28.07495932 64.83220799 27 62 C26.34 62 25.68 62 25 62 C24.13888484 65.02769315 23.81769107 67.84266637 23.68359375 70.984375 C23.64548584 71.82709961 23.60737793 72.66982422 23.56811523 73.53808594 C23.50346069 75.1279834 23.50346069 75.1279834 23.4375 76.75 C23.293125 80.1325 23.14875 83.515 23 87 C15.41 87 7.82 87 0 87 C0 58.29 0 29.58 0 0 Z " fill="#FEFEFE" transform="translate(502,75)"/>
<path d="M0 0 C5.30186559 -0.09918586 10.60318618 -0.17161755 15.90576172 -0.21972656 C17.70794081 -0.23979033 19.51005521 -0.26704813 21.31201172 -0.30175781 C23.90869136 -0.35050829 26.50450729 -0.37302082 29.1015625 -0.390625 C30.30191635 -0.42159271 30.30191635 -0.42159271 31.52651978 -0.45318604 C37.74861093 -0.45565842 41.23495613 1.41220253 45.828125 5.7109375 C46.29734375 6.26007813 46.7665625 6.80921875 47.25 7.375 C47.72953125 7.91898437 48.2090625 8.46296875 48.703125 9.0234375 C52.7149403 15.1378307 52.33414674 21.70182143 52.3125 28.75 C52.32861328 29.78382812 52.34472656 30.81765625 52.36132812 31.8828125 C52.36596379 39.24425435 51.98176403 47.05929705 47.38378906 53.13598633 C45.73789509 54.92440453 45.73789509 54.92440453 46.19140625 57.30859375 C46.45824219 58.19675781 46.72507812 59.08492187 47 60 C47.44666016 61.65708984 47.44666016 61.65708984 47.90234375 63.34765625 C48.24394531 64.57355469 48.58554687 65.79945313 48.9375 67.0625 C50.74380138 73.6613795 51.99629779 80.2250101 53 87 C45.08 87 37.16 87 29 87 C27.0625 79.1875 27.0625 79.1875 26.45727539 76.73901367 C25.72236116 73.78787949 24.96210745 70.88632236 24 68 C22.48578999 69.51421001 22.78690144 70.92472768 22.68359375 73.03515625 C22.64548584 73.76355713 22.60737793 74.49195801 22.56811523 75.24243164 C22.50346069 76.63836548 22.50346069 76.63836548 22.4375 78.0625 C22.293125 81.011875 22.14875 83.96125 22 87 C14.74 87 7.48 87 0 87 C-1.02509038 77.10114745 -1.04974385 67.35201304 -0.87890625 57.421875 C-0.85454615 55.75751472 -0.83070577 54.09314676 -0.80735779 52.42877197 C-0.74510181 48.08871582 -0.6758758 43.74879901 -0.60510254 39.40887451 C-0.53388418 34.96405275 -0.46938959 30.5191337 -0.40429688 26.07421875 C-0.27604072 17.38270463 -0.1404069 8.6913263 0 0 Z M23 22 C23 28.27 23 34.54 23 41 C24.32 41 25.64 41 27 41 C28.4097034 38.1805932 28.16984647 35.76732774 28.1875 32.625 C28.20167969 31.48289062 28.21585937 30.34078125 28.23046875 29.1640625 C28.01170034 26.16063184 27.57080637 24.52074066 26 22 C25.01 22 24.02 22 23 22 Z " fill="#FEFEFE" transform="translate(376,75)"/>
<path d="M0 0 C10.89 0 21.78 0 33 0 C36.37555264 14.62739476 36.37555264 14.62739476 37.33447266 20.29980469 C37.65963364 22.20678131 37.65963364 22.20678131 37.99136353 24.15228271 C38.21575474 25.49212032 38.43998386 26.83198508 38.6640625 28.171875 C38.90373484 29.58909548 39.14367992 31.00626986 39.38388062 32.42340088 C39.88206617 35.36763552 40.37761729 38.31229672 40.87109375 41.25732422 C41.49983212 45.00882031 42.1343094 48.75931794 42.77063942 52.50953293 C43.26504451 55.42618224 43.75688932 58.34325876 44.24793625 61.26047516 C44.48088524 62.64311177 44.71449362 64.02563747 44.94881058 65.40804291 C45.27649216 67.34419612 45.60046313 69.2809762 45.92431641 71.21777344 C46.108461 72.31329529 46.29260559 73.40881714 46.48233032 74.53753662 C47.10112481 78.67637912 47.53786123 82.84075108 48 87 C35.79 87 23.58 87 11 87 C11 73.5 11 73.5 12 67.75 C12.185625 66.65171875 12.37125 65.5534375 12.5625 64.421875 C12.706875 63.62265625 12.85125 62.8234375 13 62 C17.455 61.505 17.455 61.505 22 61 C21.52215605 56.97900833 21.04248795 52.95823626 20.5625 48.9375 C20.42779297 47.80376953 20.29308594 46.67003906 20.15429688 45.50195312 C19.49558909 39.9913002 18.82056603 34.4890291 18 29 C17.34 29 16.68 29 16 29 C12.11971537 48.24164673 9.08774617 67.61924651 6 87 C-1.26 87 -8.52 87 -16 87 C-15.64808594 85.23785156 -15.29617187 83.47570312 -14.93359375 81.66015625 C-11.82533783 65.9334046 -8.9377701 50.17928887 -6.25 34.375 C-6.10174774 33.50481232 -5.95349548 32.63462463 -5.80075073 31.73806763 C-4.25076525 22.62330949 -2.73402278 13.5102991 -1.42089844 4.35791016 C-1 2 -1 2 0 0 Z " fill="#FEFEFE" transform="translate(218,75)"/>
<path d="M0 0 C1.39120471 0.00015906 2.78241534 0.00585033 4.17358398 0.01586914 C4.90463852 0.01728409 5.63569305 0.01869904 6.38890076 0.02015686 C8.73253406 0.02577131 11.07607313 0.03832617 13.41967773 0.05102539 C15.00496282 0.05603853 16.59024939 0.06060176 18.17553711 0.06469727 C22.06945383 0.07574542 25.96329979 0.09301967 29.85717773 0.11352539 C33.24213133 16.27557343 36.07718548 32.52708342 38.85864258 48.80126953 C39.4893567 52.49137618 40.1248969 56.18063361 40.76176071 59.86968327 C41.25599594 62.73547846 41.74783617 65.60168059 42.23892975 68.46801567 C42.472647 69.8305037 42.70708974 71.19286749 42.94228363 72.55510139 C43.26758222 74.44142745 43.58932212 76.32836618 43.91088867 78.21533203 C44.18591217 79.82028282 44.18591217 79.82028282 44.4664917 81.45765686 C44.85717773 84.11352539 44.85717773 84.11352539 44.85717773 87.11352539 C32.64717773 87.11352539 20.43717773 87.11352539 7.85717773 87.11352539 C7.85717773 72.48852539 7.85717773 72.48852539 8.85717773 67.30102539 C9.04280273 66.30458008 9.22842773 65.30813477 9.41967773 64.28149414 C9.56405273 63.56606445 9.70842773 62.85063477 9.85717773 62.11352539 C14.31217773 61.61852539 14.31217773 61.61852539 18.85717773 61.11352539 C17.53717773 50.55352539 16.21717773 39.99352539 14.85717773 29.11352539 C14.19717773 29.11352539 13.53717773 29.11352539 12.85717773 29.11352539 C11.4571088 35.19233931 10.23809097 41.28138538 9.16577148 47.42602539 C9.01560074 48.2797876 8.86542999 49.1335498 8.71070862 50.01318359 C8.39627334 51.80458752 8.08288557 53.5961756 7.77050781 55.38793945 C7.29581595 58.10700562 6.81594789 60.82512441 6.33569336 63.54321289 C6.0287389 65.29576212 5.72208812 67.04836457 5.41577148 68.80102539 C5.27409042 69.6012915 5.13240936 70.40155762 4.98643494 71.22607422 C4.78601341 72.38272583 4.78601341 72.38272583 4.58154297 73.56274414 C4.40739113 74.55794067 4.40739113 74.55794067 4.22972107 75.57324219 C3.66761375 79.40611651 3.28497542 83.26334626 2.85717773 87.11352539 C-4.40282227 87.11352539 -11.66282227 87.11352539 -19.14282227 87.11352539 C-17.65292805 78.55792075 -16.14566493 70.01053729 -14.49438477 61.48461914 C-14.35499481 60.76374115 -14.21560486 60.04286316 -14.07199097 59.30014038 C-13.93052643 58.5685672 -13.78906189 57.83699402 -13.64331055 57.08325195 C-10.66199873 41.66504722 -7.94238314 26.23806777 -5.65307617 10.70117188 C-5.46664551 9.45021729 -5.28021484 8.1992627 -5.08813477 6.91040039 C-4.92845215 5.81050781 -4.76876953 4.71061523 -4.60424805 3.57739258 C-3.92105382 -0.07064771 -3.83580766 0.13855749 0 0 Z " fill="#FDFDFD" transform="translate(452.142822265625,74.886474609375)"/>
<path d="M0 0 C9.57 0 19.14 0 29 0 C29.02505615 2.29590088 29.0501123 4.59180176 29.07592773 6.95727539 C29.15953671 14.55689243 29.24820482 22.15644444 29.33933926 29.75597477 C29.39442015 34.36195134 29.44781573 38.9679344 29.49731445 43.57397461 C29.54517768 48.02198497 29.5975271 52.46992229 29.65294075 56.91784477 C29.67326522 58.61181244 29.69199402 60.30580006 29.70907402 61.99980354 C29.73333886 64.37892966 29.76336113 66.75792055 29.79467773 69.13696289 C29.80331093 70.17922279 29.80331093 70.17922279 29.81211853 71.24253845 C29.86059584 74.49874753 30.08765387 77.57954309 30.57533264 80.80393982 C31 84 31 84 30 87 C20.1 87 10.2 87 0 87 C0 58.29 0 29.58 0 0 Z " fill="#FEFEFE" transform="translate(561,75)"/>
<path d="M0 0 C5.07207799 -0.02295058 10.14397592 -0.04286558 15.21606445 -0.05493164 C16.9416566 -0.05996158 18.66724448 -0.06678626 20.39282227 -0.07543945 C22.8725693 -0.08756361 25.35226 -0.09324169 27.83203125 -0.09765625 C28.60400345 -0.10281754 29.37597565 -0.10797882 30.17134094 -0.11329651 C33.3830228 -0.11363318 35.93020266 -0.02326578 39 1 C39 10.24 39 19.48 39 29 C25.94653953 29.10612569 13.03700934 28.69530716 0 28 C0 18.76 0 9.52 0 0 Z " fill="#FEFEFE" transform="translate(330,108)"/>
<path d="M0 0 C6.90621196 6.44292473 13.32357172 14.16503251 17 22.9375 C16.67 23.9275 16.34 24.9175 16 25.9375 C15.01 24.32875 15.01 24.32875 14 22.6875 C11.65969124 18.95637918 9.28313237 15.25023038 6.875 11.5625 C6.21242188 10.54414063 5.54984375 9.52578125 4.8671875 8.4765625 C3.08105168 5.74475989 3.08105168 5.74475989 0 3.9375 C0 3.2775 0 2.6175 0 1.9375 C-2.33214148 0.73121992 -4.49642139 -0.2279738 -7 -1.0625 C-7.42539063 -1.52269531 -7.85078125 -1.98289062 -8.2890625 -2.45703125 C-13.74747065 -7.57896219 -23.53965122 -9.39979617 -30.75 -9.5625 C-40.68225776 -9.10501419 -48.9845262 -5.98161911 -57 -0.0625 C-59.2773501 2.75259993 -59.2773501 2.75259993 -59 5.9375 C-59 7.9375 -59 9.9375 -59 11.9375 C-59.33 11.2775 -59.66 10.6175 -60 9.9375 C-62.64 10.5975 -65.28 11.2575 -68 11.9375 C-68.11542197 13.17826302 -68.11542197 13.17826302 -66.5 14.5 C-66.005 14.974375 -65.51 15.44875 -65 15.9375 C-65.33 16.5975 -65.66 17.2575 -66 17.9375 C-65.01 17.9375 -64.02 17.9375 -63 17.9375 C-63.57753801 21.54235266 -64.55038764 24.25151357 -66.3125 27.4375 C-70.12957771 34.81718358 -72.49198326 42.77912945 -74 50.9375 C-74.66 50.9375 -75.32 50.9375 -76 50.9375 C-76 48.2975 -76 45.6575 -76 42.9375 C-76.66 42.9375 -77.32 42.9375 -78 42.9375 C-78.66 43.5975 -79.32 44.2575 -80 44.9375 C-80.66 44.9375 -81.32 44.9375 -82 44.9375 C-82.99 47.4125 -82.99 47.4125 -84 49.9375 C-86 46.9375 -86 46.9375 -85.49609375 44.00390625 C-80.63563917 27.91598096 -74.58414237 12.65377048 -62 0.9375 C-61.34 0.9375 -60.68 0.9375 -60 0.9375 C-60 0.2775 -60 -0.3825 -60 -1.0625 C-41.82502431 -16.42781761 -17.65531767 -15.02060103 0 0 Z " fill="#E4E4FB" transform="translate(133,16.0625)"/>
<path d="M0 0 C0 0.99 0 1.98 0 3 C-0.69738281 2.7834375 -1.39476562 2.566875 -2.11328125 2.34375 C-10.63122993 0.09725804 -18.78189707 -0.33159434 -27.5625 -0.375 C-28.68503174 -0.38853516 -29.80756348 -0.40207031 -30.96411133 -0.41601562 C-38.98481583 -0.37395818 -46.26716091 0.90298588 -54 3 C-54 1.68 -54 0.36 -54 -1 C-48.12245579 -4.15556677 -42.61525707 -6.92531925 -36 -8 C-35.14148438 -8.15726563 -34.28296875 -8.31453125 -33.3984375 -8.4765625 C-21.96726857 -10.04796308 -9.05834488 -7.35990521 0 0 Z " fill="#D4D5E9" transform="translate(130,57)"/>
<path d="M0 0 C2 1.375 2 1.375 4 3 C4 3.66 4 4.32 4 5 C-33.95 5 -71.9 5 -111 5 C-110.34 4.01 -109.68 3.02 -109 2 C-107.05161095 1.64647388 -107.05161095 1.64647388 -104.62142944 1.67720032 C-103.24159126 1.68363556 -103.24159126 1.68363556 -101.83387756 1.69020081 C-100.82183762 1.71033737 -99.80979767 1.73047394 -98.76708984 1.7512207 C-97.7036586 1.76053619 -96.64022736 1.76985168 -95.54457092 1.77944946 C-92.01637533 1.81392736 -88.48885222 1.86980399 -84.9609375 1.92578125 C-82.52000373 1.95380229 -80.07905437 1.98049397 -77.63809204 2.00590515 C-71.2033146 2.0764824 -64.76890797 2.16518192 -58.33441162 2.25756836 C-51.7725482 2.3486056 -45.2104957 2.42262509 -38.6484375 2.49804688 C-25.76538416 2.64864343 -12.88264306 2.81779483 0 3 C0 2.01 0 1.02 0 0 Z " fill="#DBDCEF" transform="translate(156,148)"/>
<path d="M0 0 C6.90621196 6.44292473 13.32357172 14.16503251 17 22.9375 C16.67 23.9275 16.34 24.9175 16 25.9375 C15.01 24.32875 15.01 24.32875 14 22.6875 C11.65969124 18.95637918 9.28313237 15.25023038 6.875 11.5625 C6.21242187 10.54414063 5.54984375 9.52578125 4.8671875 8.4765625 C3.08105168 5.74475989 3.08105168 5.74475989 0 3.9375 C0 3.2775 0 2.6175 0 1.9375 C-2.33214148 0.73121992 -4.49642139 -0.2279738 -7 -1.0625 C-7.63808594 -1.75279297 -7.63808594 -1.75279297 -8.2890625 -2.45703125 C-13.74747065 -7.57896219 -23.53965122 -9.39979617 -30.75 -9.5625 C-36.54102294 -9.32916208 -41.57228522 -7.99168776 -47 -6.0625 C-48.32935281 -5.7136304 -49.66165046 -5.37508504 -51 -5.0625 C-51 -5.7225 -51 -6.3825 -51 -7.0625 C-32.6636198 -14.99473691 -15.36719607 -13.07393758 0 0 Z " fill="#D2D3E2" transform="translate(133,16.0625)"/>
<path d="M0 0 C0.99 0.33 1.98 0.66 3 1 C2.2575 1.5775 1.515 2.155 0.75 2.75 C-1.68136496 4.73929861 -3.93735403 6.63177685 -6 9 C-6 9.99 -6 10.98 -6 12 C-6 14 -6 16 -6 18 C-6.33 17.34 -6.66 16.68 -7 16 C-8.31471568 16.28151087 -9.62675767 16.57553339 -10.9375 16.875 C-12.03384766 17.11863281 -12.03384766 17.11863281 -13.15234375 17.3671875 C-15.20700294 17.82961523 -15.20700294 17.82961523 -16 20 C-16.66 20 -17.32 20 -18 20 C-18.4021875 21.299375 -18.4021875 21.299375 -18.8125 22.625 C-19.97111987 25.91791964 -21.38209839 28.91127875 -23 32 C-23.99 31.67 -24.98 31.34 -26 31 C-21.60744166 22.24816027 -16.44397983 13.54231466 -9 7 C-8.34 7 -7.68 7 -7 7 C-7 6.34 -7 5.68 -7 5 C-5.57421875 3.67578125 -5.57421875 3.67578125 -3.6875 2.3125 C-3.07261719 1.85488281 -2.45773438 1.39726562 -1.82421875 0.92578125 C-1.22222656 0.62027344 -0.62023437 0.31476562 0 0 Z " fill="#E5E6FC" transform="translate(80,10)"/>
<path d="M0 0 C1.32 1.65 2.64 3.3 4 5 C6.35171131 4.40138258 8.6859378 3.73075648 11 3 C11.33 2.34 11.66 1.68 12 1 C12.66 1.33 13.32 1.66 14 2 C14 2.66 14 3.32 14 4 C-3.14893617 12.14893617 -3.14893617 12.14893617 -12 12 C-10.67915553 6.38641099 -6.56312373 4.00405646 -2 1 C-1.34 0.67 -0.68 0.34 0 0 Z " fill="#E2E3F8" transform="translate(125,125)"/>
<path d="M0 0 C1.31242676 -0.00193359 1.31242676 -0.00193359 2.65136719 -0.00390625 C9.40334163 0.10624832 15.12621631 1.26094599 21.1875 4.375 C17.5378362 5.63834516 14.95452969 5.019693 11.1875 4.375 C7.23257688 4.10464679 3.27363839 3.9612866 -0.6875 3.8125 C-1.75742188 3.76931641 -2.82734375 3.72613281 -3.9296875 3.68164062 C-6.55717754 3.57607183 -9.18475422 3.47396209 -11.8125 3.375 C-12.1425 4.035 -12.4725 4.695 -12.8125 5.375 C-15.7825 5.375 -18.7525 5.375 -21.8125 5.375 C-15.90199391 -0.04296392 -7.59067052 -0.01161097 0 0 Z " fill="#E2E3FB" transform="translate(102.8125,50.625)"/>
<path d="M0 0 C0 0.99 0 1.98 0 3 C-1.79296875 4.4296875 -1.79296875 4.4296875 -4.1875 5.875 C-7.95629791 8.24969711 -10.88744021 10.79850993 -14 14 C-16.3125 15.3125 -16.3125 15.3125 -18 16 C-18 16.66 -18 17.32 -18 18 C-18.66 18 -19.32 18 -20 18 C-20 18.66 -20 19.32 -20 20 C-20.66 20 -21.32 20 -22 20 C-23.92205381 24.58335908 -25.45730076 29.27934033 -27 34 C-27.33 34 -27.66 34 -28 34 C-27.47328425 22.14889556 -20.37425281 15.07011351 -12.03515625 7.12890625 C-3.91069202 0 -3.91069202 0 0 0 Z " fill="#E2E3F3" transform="translate(52,102)"/>
<path d="M0 0 C-0.66 0.66 -1.32 1.32 -2 2 C-3.11375 1.54625 -4.2275 1.0925 -5.375 0.625 C-14.90619674 -2.8943385 -24.02872273 -3.26552634 -34.125 -3.125 C-35.36765625 -3.11597656 -36.6103125 -3.10695312 -37.890625 -3.09765625 C-40.92729004 -3.07429729 -43.96353853 -3.04154283 -47 -3 C-46.67 -3.66 -46.34 -4.32 -46 -5 C-31.80241027 -9.30899611 -13.09755146 -5.93378918 0 0 Z " fill="#CFD0E4" transform="translate(134,63)"/>
<path d="M0 0 C0.66 0 1.32 0 2 0 C7.07915917 13.87698845 10.13578488 23.63203039 5 38 C4.34 37.34 3.68 36.68 3 36 C3.47207551 34.0779783 3.95044021 32.15722213 4.46484375 30.24609375 C6.49849603 21.71069183 3.82531515 14.52626215 1.09375 6.4765625 C0 3 0 3 0 0 Z " fill="#D5D7E5" transform="translate(187,153)"/>
<path d="M0 0 C5.08139441 1.59700967 8.63039113 4.41036411 11.14453125 9.1640625 C11.42683594 9.76992187 11.70914063 10.37578125 12 11 C6.07329556 10.61026207 1.29615218 9.7584126 -4 7 C-4.33 6.34 -4.66 5.68 -5 5 C-3.02 5 -1.04 5 1 5 C0.67 3.35 0.34 1.7 0 0 Z " fill="#DDDDF2" transform="translate(80,126)"/>
<path d="M0 0 C0.59505999 2.04524321 0.95466781 4.09333957 1.33984375 6.1875 C1.55769531 6.785625 1.77554688 7.38375 2 8 C2.99 8.33 3.98 8.66 5 9 C1.72814447 10.07310858 -0.42947592 9.89263102 -3.75 9.0625 C-4.54921875 8.86785156 -5.3484375 8.67320313 -6.171875 8.47265625 C-6.77515625 8.31667969 -7.3784375 8.16070312 -8 8 C-7.505 7.54625 -7.01 7.0925 -6.5 6.625 C-4.77390663 5.12364481 -4.77390663 5.12364481 -5 3 C-7.64 3.66 -10.28 4.32 -13 5 C-13 4.01 -13 3.02 -13 2 C-11.21089097 1.47044766 -9.41860852 0.9516063 -7.625 0.4375 C-6.62726563 0.14746094 -5.62953125 -0.14257812 -4.6015625 -0.44140625 C-2 -1 -2 -1 0 0 Z " fill="#E0E1F6" transform="translate(88,59)"/>
<path d="M0 0 C0.99 0 1.98 0 3 0 C-2.28780155 11.8975535 -14.78663677 16.04362315 -26 21 C-26.33 20.34 -26.66 19.68 -27 19 C-26.35450195 18.65743164 -25.70900391 18.31486328 -25.04394531 17.96191406 C-22.10859705 16.39871709 -19.17930034 14.82449894 -16.25 13.25 C-15.23421875 12.71117187 -14.2184375 12.17234375 -13.171875 11.6171875 C-12.1921875 11.08867187 -11.2125 10.56015625 -10.203125 10.015625 C-9.30239258 9.53383789 -8.40166016 9.05205078 -7.47363281 8.55566406 C-3.73700314 6.20570312 -1.40900987 4.2270296 0 0 Z " fill="#DDDEEE" transform="translate(188,191)"/>
<path d="M0 0 C0.495 0.99 0.495 0.99 1 2 C-2.7940981 1.50077657 -6.2071503 0.60678094 -9.8125 -0.625 C-16.53804224 -2.68198743 -21.9053606 -1.92507684 -28.375 0.625 C-32 2 -32 2 -35 1 C-25.05388653 -7.50812116 -10.83669643 -5.65392857 0 0 Z " fill="#DCDCEC" transform="translate(120,18)"/>
<path d="M0 0 C0.6328125 1.796875 0.6328125 1.796875 1 4 C-0.16345076 5.77939528 -1.33188542 7.555705 -2.5234375 9.31640625 C-4.44601417 12.81061305 -5.59056905 16.3824976 -6.75 20.1875 C-7.06541748 21.22148926 -7.06541748 21.22148926 -7.38720703 22.27636719 C-8.43791779 25.82455644 -9.34917907 29.35681764 -10 33 C-10.66 33 -11.32 33 -12 33 C-11.37221644 20.86285114 -6.71588406 10.01612949 0 0 Z " fill="#D0D1E1" transform="translate(69,34)"/>
<path d="M0 0 C0.66 0.66 1.32 1.32 2 2 C0.783125 1.835 -0.43375 1.67 -1.6875 1.5 C-11.74230966 0.42495746 -20.43882998 0.60164675 -30 4 C-31.32935281 4.3488696 -32.66165046 4.68741496 -34 5 C-34 4.34 -34 3.68 -34 3 C-22.86150223 -1.81846483 -11.79361085 -3.96382771 0 0 Z " fill="#CCCDDA" transform="translate(116,6)"/>
<path d="M0 0 C0.87398438 0.48919922 0.87398438 0.48919922 1.765625 0.98828125 C9.39258825 5.05359657 17.27063146 8 26 8 C26 8.66 26 9.32 26 10 C26.66 10.33 27.32 10.66 28 11 C27.34 12.32 26.68 13.64 26 15 C25.34 15 24.68 15 24 15 C24.33 13.35 24.66 11.7 25 10 C24.33355469 9.97421875 23.66710937 9.9484375 22.98046875 9.921875 C14.67029339 9.41047959 7.00190039 7.66793359 0 3 C0 2.01 0 1.02 0 0 Z " fill="#D9D9EB" transform="translate(105,76)"/>
<path d="M0 0 C0.66 0.33 1.32 0.66 2 1 C2 1.66 2 2.32 2 3 C2.66 3.33 3.32 3.66 4 4 C3.28070313 4.06832031 2.56140625 4.13664062 1.8203125 4.20703125 C-1.84999961 5.23898881 -3.47190584 6.97355506 -6.125 9.6875 C-7.39730469 10.96173828 -7.39730469 10.96173828 -8.6953125 12.26171875 C-11.03328744 15.03954999 -12.52037971 17.69744884 -14 21 C-14.66 20.34 -15.32 19.68 -16 19 C-11.83167793 11.28088505 -6.79537393 5.52246527 0 0 Z " fill="#E0E1F2" transform="translate(49,114)"/>
<path d="M0 0 C2.475 0.495 2.475 0.495 5 1 C4.34 4.3 3.68 7.6 3 11 C3.66 11.33 4.32 11.66 5 12 C4.67 13.65 4.34 15.3 4 17 C0.68341387 12.0251208 -0.38479461 5.96431647 0 0 Z " fill="#DDDDF0" transform="translate(10,174)"/>
<path d="M0 0 C0.515625 0.2475 1.03125 0.495 1.5625 0.75 C-0.4175 1.74 -0.4175 1.74 -2.4375 2.75 C-0.1275 2.75 2.1825 2.75 4.5625 2.75 C4.2325 3.41 3.9025 4.07 3.5625 4.75 C1.39782539 5.37669199 -0.79614524 5.90427374 -3 6.375 C-4.19753906 6.63539062 -5.39507812 6.89578125 -6.62890625 7.1640625 C-7.55574219 7.35742188 -8.48257813 7.55078125 -9.4375 7.75 C-9.4375 6.43 -9.4375 5.11 -9.4375 3.75 C-3.0375 -0.31153846 -3.0375 -0.31153846 0 0 Z " fill="#CDCEE1" transform="translate(85.4375,52.25)"/>
<path d="M0 0 C0.95261719 0.40992188 1.90523437 0.81984375 2.88671875 1.2421875 C4.15363184 1.7864909 5.42055971 2.33075991 6.6875 2.875 C7.31333984 3.14441406 7.93917969 3.41382813 8.58398438 3.69140625 C11.31835443 4.86532429 14.04812421 6.01818763 16.83203125 7.0703125 C19 8 19 8 21 10 C18.73386168 10.77056242 17.42628832 11.13279547 15.10888672 10.41088867 C14.47225098 10.0832251 13.83561523 9.75556152 13.1796875 9.41796875 C12.47972656 9.06283203 11.77976562 8.70769531 11.05859375 8.34179688 C10.33800781 7.96087891 9.61742187 7.57996094 8.875 7.1875 C8.14667969 6.81818359 7.41835938 6.44886719 6.66796875 6.06835938 C1.31029762 3.31029762 1.31029762 3.31029762 -1 1 C-0.67 0.67 -0.34 0.34 0 0 Z " fill="#DADBEC" transform="translate(25,201)"/>
<path d="M0 0 C3.35934832 1.43124553 5.31792827 3.17728304 7.6875 5.9375 C8.28949219 6.62714844 8.89148438 7.31679687 9.51171875 8.02734375 C11 10 11 10 12 13 C12.66 13.66 13.32 14.32 14 15 C12.02 15.99 12.02 15.99 10 17 C9.78085938 16.41992188 9.56171875 15.83984375 9.3359375 15.2421875 C7.02175162 9.54138815 4.48136842 6.17582057 0 2 C0 1.34 0 0.68 0 0 Z " fill="#E0E0F3" transform="translate(161,121)"/>
<path d="M0 0 C0.66 0.33 1.32 0.66 2 1 C2 4.96 2 8.92 2 13 C3.65 13 5.3 13 7 13 C3.91190305 14.76462683 2.76687864 15 -1 15 C-0.67 10.05 -0.34 5.1 0 0 Z " fill="#DCDDEF" transform="translate(162,179)"/>
<path d="M0 0 C0.33 0.66 0.66 1.32 1 2 C0.34 2 -0.32 2 -1 2 C-1 2.66 -1 3.32 -1 4 C-1.66 4 -2.32 4 -3 4 C-4.92205381 8.58335908 -6.45730076 13.27934033 -8 18 C-8.33 18 -8.66 18 -9 18 C-8.72986927 11.92205857 -8.02699406 7.83239287 -4 3 C-1.75 1.125 -1.75 1.125 0 0 Z " fill="#D5D6E9" transform="translate(33,118)"/>
<path d="M0 0 C0.66 0 1.32 0 2 0 C0.63172347 5.78886224 -1.04911777 11.38145918 -3 17 C-3.99 16.67 -4.98 16.34 -6 16 C-4.27933894 10.55123997 -2.15294651 5.28830549 0 0 Z " fill="#DBDDED" transform="translate(32,136)"/>
<path d="M0 0 C0.66 0.66 1.32 1.32 2 2 C1.67 2.66 1.34 3.32 1 4 C0.34 4 -0.32 4 -1 4 C-1.268125 4.86625 -1.53625 5.7325 -1.8125 6.625 C-2.97111987 9.91791964 -4.38209839 12.91127875 -6 16 C-6.99 15.67 -7.98 15.34 -9 15 C-8.06652642 13.24784894 -7.1280468 11.49836437 -6.1875 9.75 C-5.66542969 8.77546875 -5.14335938 7.8009375 -4.60546875 6.796875 C-3.21034812 4.36644588 -1.73804039 2.19212301 0 0 Z " fill="#CACADA" transform="translate(63,26)"/>
<path d="M0 0 C0.66 0.33 1.32 0.66 2 1 C1.67 1.33 1.34 1.66 1 2 C2.65 2 4.3 2 6 2 C6.33 2.66 6.66 3.32 7 4 C2.8803623 5.29243536 -0.66831683 6.26252625 -5 6 C-3.86695008 2.60085025 -2.87481525 1.94745549 0 0 Z " fill="#CFD3E5" transform="translate(118,131)"/>
<path d="M0 0 C0.66 0 1.32 0 2 0 C1.76774367 3.48384489 1.62008825 5.3999146 -0.9375 7.875 C-5.30366682 9.47889802 -9.39896121 9.24121951 -14 9 C-14 8.67 -14 8.34 -14 8 C-11.03 8 -8.06 8 -5 8 C-5 7.34 -5 6.68 -5 6 C-4.360625 5.7525 -3.72125 5.505 -3.0625 5.25 C-0.81258459 4.18437567 -0.81258459 4.18437567 -0.25 1.875 C-0.1675 1.25625 -0.085 0.6375 0 0 Z " fill="#EBECF8" transform="translate(159,229)"/>
<path d="M0 0 C4.95 1.32 9.9 2.64 15 4 C15 4.99 15 5.98 15 7 C14.43152344 6.79503906 13.86304688 6.59007813 13.27734375 6.37890625 C8.4915546 4.70907331 4.04056799 3.53623064 -1 3 C-0.67 2.01 -0.34 1.02 0 0 Z " fill="#D9DAEE" transform="translate(118,58)"/>
<path d="M0 0 C2.28814723 2.28814723 2.75451161 3.80751622 3.6875 6.875 C3.95949219 7.73867187 4.23148438 8.60234375 4.51171875 9.4921875 C5.01692938 12.08694932 4.85561171 13.530785 4 16 C4 15.34 4 14.68 4 14 C3.34 14 2.68 14 2 14 C0.66416101 9.15758367 -0.25328119 5.06562383 0 0 Z " fill="#E1E1F3" transform="translate(180,158)"/>
<path d="M0 0 C0.99 0.33 1.98 0.66 3 1 C3 1.66 3 2.32 3 3 C1.04350603 3.83764268 -0.91525556 4.66999059 -2.875 5.5 C-4.51082031 6.19609375 -4.51082031 6.19609375 -6.1796875 6.90625 C-9 8 -9 8 -11 8 C-11 7.34 -11 6.68 -11 6 C-9.5437455 5.32880451 -8.08492133 4.66318193 -6.625 4 C-5.40683594 3.443125 -5.40683594 3.443125 -4.1640625 2.875 C-2 2 -2 2 0 2 C0 1.34 0 0.68 0 0 Z " fill="#DDDDF1" transform="translate(136,126)"/>
<path d="M0 0 C2.99220268 1.36370299 5.29026529 2.94908083 7.75 5.125 C8.67039062 5.93324219 8.67039062 5.93324219 9.609375 6.7578125 C10.06828125 7.16773437 10.5271875 7.57765625 11 8 C9.1640625 8.63671875 9.1640625 8.63671875 7 9 C3.83631836 6.36359864 1.5595265 3.82792868 0 0 Z " fill="#DEE0F1" transform="translate(83,103)"/>
<path d="M0 0 C3.4087928 1.3984791 4.87393835 2.85006933 6.75 6 C7.17796875 6.70125 7.6059375 7.4025 8.046875 8.125 C9 10 9 10 9 12 C5.37648747 10.79216249 4.84784764 9.70346858 2.8125 6.5625 C2.28269531 5.75941406 1.75289062 4.95632812 1.20703125 4.12890625 C0 2 0 2 0 0 Z " fill="#D3D4E4" transform="translate(131,30)"/>
<path d="M0 0 C0.66 0 1.32 0 2 0 C1.67 4.62 1.34 9.24 1 14 C0.34 14 -0.32 14 -1 14 C-1.02685938 11.85423363 -1.04633088 9.70837355 -1.0625 7.5625 C-1.07410156 6.36753906 -1.08570313 5.17257813 -1.09765625 3.94140625 C-1 1 -1 1 0 0 Z " fill="#DFDFF0" transform="translate(40,149)"/>
<path d="M0 0 C2.62187494 1.04874998 3.79371361 1.64931313 5.25 4.125 C5.4975 4.74375 5.745 5.3625 6 6 C3.36 5.67 0.72 5.34 -2 5 C-2 4.34 -2 3.68 -2 3 C-1.34 2.67 -0.68 2.34 0 2 C0 1.34 0 0.68 0 0 Z " fill="#D3D4E4" transform="translate(86,131)"/>
<path d="M0 0 C0.66 0 1.32 0 2 0 C1.21681311 3.91593446 -0.39179858 7.36406635 -2 11 C-2.99 10.67 -3.98 10.34 -5 10 C-3.66749209 6.4124787 -2.169283 3.1635377 0 0 Z " fill="#D7DAF0" transform="translate(149,101)"/>
<path d="M0 0 C2.16874252 0.50603992 3.99967627 0.99983813 6 2 C6.6328125 3.84765625 6.6328125 3.84765625 7.125 6.0625 C7.29257813 6.79597656 7.46015625 7.52945313 7.6328125 8.28515625 C7.75398438 8.85105469 7.87515625 9.41695312 8 10 C7.01 10.33 6.02 10.66 5 11 C4.690625 9.906875 4.38125 8.81375 4.0625 7.6875 C3.41662103 5.44592006 2.7376883 3.2130649 2 1 C1.34 0.67 0.68 0.34 0 0 Z " fill="#DEDEF1" transform="translate(104,177)"/>
<path d="M0 0 C0.66 0.66 1.32 1.32 2 2 C-0.88341534 6.21422242 -3.04303419 7.76075855 -8 9 C-8 8.34 -8 7.68 -8 7 C-6.25 5.2734375 -6.25 5.2734375 -4 3.375 C-3.2575 2.74335937 -2.515 2.11171875 -1.75 1.4609375 C-1.1725 0.97882813 -0.595 0.49671875 0 0 Z " fill="#D9DBEC" transform="translate(121,102)"/>
<path d="M0 0 C-1.24252679 0.84443568 -2.4943886 1.6751458 -3.75 2.5 C-4.79414062 3.19609375 -4.79414062 3.19609375 -5.859375 3.90625 C-8 5 -8 5 -12 5 C-12 4.34 -12 3.68 -12 3 C-10.5682384 2.30062798 -9.12932968 1.61587282 -7.6875 0.9375 C-6.48673828 0.36322266 -6.48673828 0.36322266 -5.26171875 -0.22265625 C-3 -1 -3 -1 0 0 Z " fill="#DEE0F0" transform="translate(99,79)"/>
<path d="M0 0 C0.66 0 1.32 0 2 0 C1.690625 1.216875 1.38125 2.43375 1.0625 3.6875 C0.28842823 6.7782972 -0.41262688 9.86734334 -1 13 C-1.66 13 -2.32 13 -3 13 C-3.31563182 7.73946963 -2.66590937 4.55426184 0 0 Z " fill="#DBD9E9" transform="translate(54,42)"/>
<path d="M0 0 C0.33 0.99 0.66 1.98 1 3 C-0.21484375 4.82421875 -0.21484375 4.82421875 -1.9375 6.6875 C-2.50339844 7.31011719 -3.06929688 7.93273438 -3.65234375 8.57421875 C-4.09707031 9.04472656 -4.54179688 9.51523437 -5 10 C-5.66 9.01 -6.32 8.02 -7 7 C-4.66666667 4.66666667 -2.33333333 2.33333333 0 0 Z " fill="#DFE1F2" transform="translate(76,26)"/>
<path d="M0 0 C0.66 0.33 1.32 0.66 2 1 C1.67 1.66 1.34 2.32 1 3 C0.34 3 -0.32 3 -1 3 C-1.28875 3.598125 -1.5775 4.19625 -1.875 4.8125 C-3 7 -3 7 -5 10 C-5.66 10 -6.32 10 -7 10 C-5.6062718 5.56541027 -3.39417765 3.12621626 0 0 Z " fill="#DCDCEB" transform="translate(71,17)"/>
<path d="M0 0 C3.36179774 1.44077046 5.59156268 3.24750021 8 6 C8 6.66 8 7.32 8 8 C4.63820226 6.55922954 2.40843732 4.75249979 0 2 C0 1.34 0 0.68 0 0 Z " fill="#D9D7E8" transform="translate(161,121)"/>
<path d="M0 0 C2.12046792 3.53411321 2.53199289 6.94393835 3 11 C2.34 11 1.68 11 1 11 C0.63890458 9.35567294 0.28629924 7.7094792 -0.0625 6.0625 C-0.25972656 5.14597656 -0.45695313 4.22945312 -0.66015625 3.28515625 C-0.77230469 2.53105469 -0.88445312 1.77695312 -1 1 C-0.67 0.67 -0.34 0.34 0 0 Z " fill="#DCDEF0" transform="translate(144,51)"/>
<path d="M0 0 C0.99 0.33 1.98 0.66 3 1 C0.03716687 3.38672669 -2.94270509 5.7353371 -6 8 C-5.66354211 4.85972637 -4.94763914 3.94901705 -2.625 1.6875 C-1.75875 1.130625 -0.8925 0.57375 0 0 Z " fill="#DBDCEC" transform="translate(80,10)"/>
<path d="M0 0 C0.66 0.66 1.32 1.32 2 2 C1.96712417 4.72869407 1.43602229 7.2966618 1 10 C0.01 10.33 -0.98 10.66 -2 11 C-1.125 3.375 -1.125 3.375 0 0 Z " fill="#D6D8E8" transform="translate(13,162)"/>
<path d="M0 0 C0.66 0.66 1.32 1.32 2 2 C0.35 4.64 -1.3 7.28 -3 10 C-3.66 9.34 -4.32 8.68 -5 8 C-1.125 1.125 -1.125 1.125 0 0 Z " fill="#D0D2E4" transform="translate(38,125)"/>
<path d="M0 0 C3.67420866 0.30618405 4.78135513 0.75771784 7.3125 3.5625 C8.1478125 4.7690625 8.1478125 4.7690625 9 6 C8.01 6.495 8.01 6.495 7 7 C7 6.34 7 5.68 7 5 C4.66785852 3.79371992 2.50357861 2.8345262 0 2 C0 1.34 0 0.68 0 0 Z " fill="#DCDEF2" transform="translate(157,106)"/>
<path d="M0 0 C-3.63 1.32 -7.26 2.64 -11 4 C-11 3.01 -11 2.02 -11 1 C-4.5 -1.125 -4.5 -1.125 0 0 Z " fill="#D2D4E6" transform="translate(86,60)"/>
<path d="M0 0 C0 0.99 0 1.98 0 3 C-2.25 4.8125 -2.25 4.8125 -5 6 C-7.3125 5.1875 -7.3125 5.1875 -9 4 C-7.35 4 -5.7 4 -4 4 C-4 3.34 -4 2.68 -4 2 C-2.68 1.34 -1.36 0.68 0 0 Z " fill="#DFDFF4" transform="translate(109,189)"/>
<path d="M0 0 C0.99 0.33 1.98 0.66 3 1 C3 1.66 3 2.32 3 3 C3.66 3 4.32 3 5 3 C5.33 4.32 5.66 5.64 6 7 C5.01 7 4.02 7 3 7 C2.87625 6.360625 2.7525 5.72125 2.625 5.0625 C2.315625 4.0415625 2.315625 4.0415625 2 3 C1.34 2.67 0.68 2.34 0 2 C0 1.34 0 0.68 0 0 Z " fill="#C9C9DF" transform="translate(55,104)"/>
<path d="M0 0 C0.66 0 1.32 0 2 0 C2 0.99 2 1.98 2 3 C-1 5.1875 -1 5.1875 -4 7 C-4.66 6.67 -5.32 6.34 -6 6 C-4 4 -2 2 0 0 Z " fill="#D9DCEE" transform="translate(50,102)"/>
<path d="M0 0 C2.50298434 2.93828597 3.46930939 5.17902761 4 9 C1.47411298 6.63707344 0.11179163 5.33537489 -1 2 C-0.67 1.34 -0.34 0.68 0 0 Z " fill="#D6D8E8" transform="translate(146,33)"/>
<path d="" fill="#000000" transform="translate(0,0)"/>
<path d="" fill="#000000" transform="translate(0,0)"/>
<path d="" fill="#000000" transform="translate(0,0)"/>
<path d="" fill="#000000" transform="translate(0,0)"/>
<path d="" fill="#000000" transform="translate(0,0)"/>
<path d="" fill="#000000" transform="translate(0,0)"/>
<path d="" fill="#000000" transform="translate(0,0)"/>
<path d="" fill="#000000" transform="translate(0,0)"/>
<path d="" fill="#000000" transform="translate(0,0)"/>
<path d="" fill="#000000" transform="translate(0,0)"/>
<path d="" fill="#000000" transform="translate(0,0)"/>
<path d="" fill="#000000" transform="translate(0,0)"/>
<path d="" fill="#000000" transform="translate(0,0)"/>
<path d="" fill="#000000" transform="translate(0,0)"/>
<path d="" fill="#000000" transform="translate(0,0)"/>
<path d="" fill="#000000" transform="translate(0,0)"/>
<path d="" fill="#000000" transform="translate(0,0)"/>
<path d="" fill="#000000" transform="translate(0,0)"/>
<path d="" fill="#000000" transform="translate(0,0)"/>
<path d="" fill="#000000" transform="translate(0,0)"/>
<path d="" fill="#000000" transform="translate(0,0)"/>
<path d="" fill="#000000" transform="translate(0,0)"/>
<path d="" fill="#000000" transform="translate(0,0)"/>
<path d="" fill="#000000" transform="translate(0,0)"/>
<path d="" fill="#000000" transform="translate(0,0)"/>
<path d="" fill="#000000" transform="translate(0,0)"/>
<path d="" fill="#000000" transform="translate(0,0)"/>
<path d="" fill="#000000" transform="translate(0,0)"/>
<path d="" fill="#000000" transform="translate(0,0)"/>
<path d="" fill="#000000" transform="translate(0,0)"/>
<path d="" fill="#000000" transform="translate(0,0)"/>
<path d="" fill="#000000" transform="translate(0,0)"/>
<path d="" fill="#000000" transform="translate(0,0)"/>
<path d="" fill="#000000" transform="translate(0,0)"/>
<path d="" fill="#000000" transform="translate(0,0)"/>
<path d="" fill="#000000" transform="translate(0,0)"/>
<path d="" fill="#000000" transform="translate(0,0)"/>
<path d="" fill="#000000" transform="translate(0,0)"/>
<path d="" fill="#000000" transform="translate(0,0)"/>
<path d="" fill="#000000" transform="translate(0,0)"/>
<path d="" fill="#000000" transform="translate(0,0)"/>
<path d="" fill="#000000" transform="translate(0,0)"/>
<path d="" fill="#000000" transform="translate(0,0)"/>
<path d="" fill="#000000" transform="translate(0,0)"/>
<path d="" fill="#000000" transform="translate(0,0)"/>
<path d="" fill="#000000" transform="translate(0,0)"/>
<path d="" fill="#000000" transform="translate(0,0)"/>
<path d="" fill="#000000" transform="translate(0,0)"/>
<path d="" fill="#000000" transform="translate(0,0)"/>
<path d="" fill="#000000" transform="translate(0,0)"/>
<path d="" fill="#000000" transform="translate(0,0)"/>
<path d="" fill="#000000" transform="translate(0,0)"/>
<path d="" fill="#000000" transform="translate(0,0)"/>
<path d="" fill="#000000" transform="translate(0,0)"/>
<path d="" fill="#000000" transform="translate(0,0)"/>
<path d="" fill="#000000" transform="translate(0,0)"/>
<path d="" fill="#000000" transform="translate(0,0)"/>
</svg>
